<?xml version="1.0" encoding="utf-8"?>
<!-- Generator: Adobe Illustrator 24.0.2, SVG Export Plug-In . SVG Version: 6.00 Build 0)  -->
<svg version="1.1" id="Layer_1" xmlns="http://www.w3.org/2000/svg" xmlns:xlink="http://www.w3.org/1999/xlink" x="0px" y="0px"
	 viewBox="0 0 1920.2 1075.6" style="enable-background:new 0 0 1920.2 1075.6;" xml:space="preserve">
<style type="text/css">
	.st0{opacity:0.11;fill:url(#Path_195_1_);enable-background:new    ;}
	.st1{fill:url(#Path_194_1_);}
	.st2{clip-path:url(#SVGID_3_);}
	.st3{opacity:0.14;fill:url(#Path_4_1_);stroke:#FFFFFF;stroke-width:128;enable-background:new    ;}
</style>
<g id="Group_112" transform="translate(0.089 0.042)">
	<linearGradient id="Path_195_1_" gradientUnits="userSpaceOnUse" x1="-8.898926e-02" y1="537.776" x2="1920.0945" y2="537.776">
		<stop  offset="0" style="stop-color:#FFCC66"/>
		<stop  offset="0.3037" style="stop-color:#E8DC2A"/>
		<stop  offset="0.5392" style="stop-color:#D7E700"/>
		<stop  offset="0.6773" style="stop-color:#D3EA04"/>
		<stop  offset="0.8274" style="stop-color:#C6F111"/>
		<stop  offset="0.9827" style="stop-color:#B1FD27"/>
		<stop  offset="1" style="stop-color:#AEFF2A"/>
	</linearGradient>
	<path id="Path_195" class="st0" d="M-0.1,607.4c0,0,100.4,239.9,401.2,191.5s442.1,9.6,537.6,114.9s352.1,94.3,581,52.4
		s363.2,41.8,400.4,109.4c0,0-0.4-1075.6-0.4-1075.6L0,0L-0.1,607.4z"/>
	<linearGradient id="Path_194_1_" gradientUnits="userSpaceOnUse" x1="-3.100586e-02" y1="537.7785" x2="1920.0748" y2="537.7785">
		<stop  offset="0" style="stop-color:#FFCC66"/>
		<stop  offset="0.3037" style="stop-color:#E8DC2A"/>
		<stop  offset="0.5392" style="stop-color:#D7E700"/>
		<stop  offset="0.6773" style="stop-color:#D3EA04"/>
		<stop  offset="0.8274" style="stop-color:#C6F111"/>
		<stop  offset="0.9827" style="stop-color:#B1FD27"/>
		<stop  offset="1" style="stop-color:#AEFF2A"/>
	</linearGradient>
	<path id="Path_194" class="st1" d="M0,607.5c0,0,95.3,204.2,401.2,161.1c305.9-43,419.7-32.1,544.2,96.9s344,107.5,572.9,67.1
		s360.2,68.2,401.8,143c0-2.4-0.1-1075.6-0.1-1075.6L0,0L0,607.5z"/>
	<g>
		<defs>
			<path id="SVGID_1_" d="M0,607.5c0,0,95.3,204.2,401.2,161.1c305.9-43,419.7-32.1,544.2,96.9s344,107.5,572.9,67.1
				s360.2,68.2,401.8,143c0-2.4-0.1-1075.6-0.1-1075.6L0,0L0,607.5z"/>
		</defs>
		<linearGradient id="SVGID_2_" gradientUnits="userSpaceOnUse" x1="-3.100586e-02" y1="537.7785" x2="1920.0748" y2="537.7785">
			<stop  offset="0" style="stop-color:#FFCC66"/>
			<stop  offset="0.3037" style="stop-color:#E8DC2A"/>
			<stop  offset="0.5392" style="stop-color:#D7E700"/>
			<stop  offset="0.6773" style="stop-color:#D3EA04"/>
			<stop  offset="0.8274" style="stop-color:#C6F111"/>
			<stop  offset="0.9827" style="stop-color:#B1FD27"/>
			<stop  offset="1" style="stop-color:#AEFF2A"/>
		</linearGradient>
		<use xlink:href="#SVGID_1_"  style="overflow:visible;fill:url(#SVGID_2_);"/>
		<clipPath id="SVGID_3_">
			<use xlink:href="#SVGID_1_"  style="overflow:visible;"/>
		</clipPath>
		<g id="Mask_Group_6" class="st2">
			<linearGradient id="Path_4_1_" gradientUnits="userSpaceOnUse" x1="25.632" y1="328.194" x2="1899.2261" y2="328.194">
				<stop  offset="0" style="stop-color:#FFCC66"/>
				<stop  offset="0.3037" style="stop-color:#E8DC2A"/>
				<stop  offset="0.5392" style="stop-color:#D7E700"/>
				<stop  offset="0.6773" style="stop-color:#D3EA04"/>
				<stop  offset="0.8274" style="stop-color:#C6F111"/>
				<stop  offset="0.9827" style="stop-color:#B1FD27"/>
				<stop  offset="1" style="stop-color:#AEFF2A"/>
			</linearGradient>
			<path id="Path_4" class="st3" d="M25.6,687.7c0,0,174.2-392,817.4-255s869.4,77.5,1056.2-464"/>
		</g>
	</g>
</g>
</svg>
