<?xml version="1.0" encoding="utf-8"?>
<!-- Generator: Adobe Illustrator 24.0.2, SVG Export Plug-In . SVG Version: 6.00 Build 0)  -->
<svg version="1.1" id="Layer_1" xmlns="http://www.w3.org/2000/svg" xmlns:xlink="http://www.w3.org/1999/xlink" x="0px" y="0px"
	 viewBox="0 0 1920.2 1075.6" style="enable-background:new 0 0 1920.2 1075.6;" xml:space="preserve">
<style type="text/css">
	.st0{opacity:0.11;fill:url(#Path_195_1_);enable-background:new    ;}
	.st1{fill:url(#Path_194_1_);}
	.st2{fill:url(#SVGID_2_);}
	.st3{clip-path:url(#SVGID_5_);}
	.st4{opacity:0.14;fill:url(#Path_4_1_);stroke:#FFFFFF;stroke-width:128;enable-background:new    ;}
</style>
<g id="Group_112" transform="translate(0.089 0.042)">
	<linearGradient id="Path_195_1_" gradientUnits="userSpaceOnUse" x1="-9.987795e-02" y1="537.8" x2="1920.1001" y2="537.8">
		<stop  offset="2.763819e-02" style="stop-color:#FFB500"/>
		<stop  offset="0.608" style="stop-color:#FFFF00"/>
		<stop  offset="0.734" style="stop-color:#FCFF03"/>
		<stop  offset="0.8327" style="stop-color:#F2FF0D"/>
		<stop  offset="0.9218" style="stop-color:#E1FF1D"/>
		<stop  offset="1" style="stop-color:#CCFF33"/>
	</linearGradient>
	<path id="Path_195" class="st0" d="M1920,0L0.3,0l-0.4,1075.6c37.2-67.6,171.5-151.3,400.4-109.4s485.5,52.9,581-52.4
		c95.5-105.3,236.8-163.3,537.6-114.9s401.2-191.5,401.2-191.5L1920,0z"/>
	<linearGradient id="Path_194_1_" gradientUnits="userSpaceOnUse" x1="-0.1" y1="537.8" x2="1920.0001" y2="537.8">
		<stop  offset="2.763819e-02" style="stop-color:#FFB500"/>
		<stop  offset="0.608" style="stop-color:#FFFF00"/>
		<stop  offset="0.734" style="stop-color:#FCFF03"/>
		<stop  offset="0.8327" style="stop-color:#F2FF0D"/>
		<stop  offset="0.9218" style="stop-color:#E1FF1D"/>
		<stop  offset="1" style="stop-color:#CCFF33"/>
	</linearGradient>
	<path id="Path_194" class="st1" d="M1920,0L0,0c0,0-0.1,1073.2-0.1,1075.6c41.6-74.8,172.9-183.4,401.8-143s448.4,61.9,572.9-67.1
		s238.3-139.9,544.2-96.9c305.9,43.1,401.2-161.1,401.2-161.1V0z"/>
	<g>
		<g>
			<linearGradient id="SVGID_2_" gradientUnits="userSpaceOnUse" x1="-0.1" y1="537.8" x2="1920.0001" y2="537.8">
				<stop  offset="2.763819e-02" style="stop-color:#FFB500"/>
				<stop  offset="0.608" style="stop-color:#FFFF00"/>
				<stop  offset="0.734" style="stop-color:#FCFF03"/>
				<stop  offset="0.8327" style="stop-color:#F2FF0D"/>
				<stop  offset="0.9218" style="stop-color:#E1FF1D"/>
				<stop  offset="1" style="stop-color:#CCFF33"/>
			</linearGradient>
			<path id="SVGID_1_" class="st2" d="M1920,0L0,0c0,0-0.1,1073.2-0.1,1075.6c41.6-74.8,172.9-183.4,401.8-143
				s448.4,61.9,572.9-67.1s238.3-139.9,544.2-96.9c305.9,43.1,401.2-161.1,401.2-161.1V0z"/>
		</g>
		<g>
			<defs>
				<path id="SVGID_3_" d="M1920,0L0,0c0,0-0.1,1073.2-0.1,1075.6c41.6-74.8,172.9-183.4,401.8-143s448.4,61.9,572.9-67.1
					s238.3-139.9,544.2-96.9c305.9,43.1,401.2-161.1,401.2-161.1V0z"/>
			</defs>
			<linearGradient id="SVGID_4_" gradientUnits="userSpaceOnUse" x1="-0.1" y1="537.8" x2="1920.0001" y2="537.8">
				<stop  offset="2.763819e-02" style="stop-color:#FFB500"/>
				<stop  offset="0.608" style="stop-color:#FFFF00"/>
				<stop  offset="0.734" style="stop-color:#FCFF03"/>
				<stop  offset="0.8327" style="stop-color:#F2FF0D"/>
				<stop  offset="0.9218" style="stop-color:#E1FF1D"/>
				<stop  offset="1" style="stop-color:#CCFF33"/>
			</linearGradient>
			<use xlink:href="#SVGID_3_"  style="overflow:visible;fill:url(#SVGID_4_);"/>
			<clipPath id="SVGID_5_">
				<use xlink:href="#SVGID_3_"  style="overflow:visible;"/>
			</clipPath>
			<g id="Mask_Group_6" class="st3">
				<linearGradient id="Path_4_1_" gradientUnits="userSpaceOnUse" x1="20.8001" y1="328.2" x2="1894.4001" y2="328.2">
					<stop  offset="2.763819e-02" style="stop-color:#FFB500"/>
					<stop  offset="0.608" style="stop-color:#FFFF00"/>
					<stop  offset="0.734" style="stop-color:#FCFF03"/>
					<stop  offset="0.8327" style="stop-color:#F2FF0D"/>
					<stop  offset="0.9218" style="stop-color:#E1FF1D"/>
					<stop  offset="1" style="stop-color:#CCFF33"/>
				</linearGradient>
				<path id="Path_4" class="st4" d="M20.8-31.3c186.8,541.5,413,601,1056.2,464s817.4,255,817.4,255"/>
			</g>
		</g>
	</g>
</g>
</svg>
