<?xml version="1.0" encoding="utf-8"?>
<!-- Generator: Adobe Illustrator 24.0.2, SVG Export Plug-In . SVG Version: 6.00 Build 0)  -->
<svg version="1.1" id="Layer_1" xmlns="http://www.w3.org/2000/svg" xmlns:xlink="http://www.w3.org/1999/xlink" x="0px" y="0px"
	 viewBox="0 0 1125 1125" style="enable-background:new 0 0 1125 1125;" xml:space="preserve">
<style type="text/css">
	.st0{opacity:0.15;}
	.st1{fill:#CCFF33;}
	.st2{fill:#CCFF33;stroke:#000000;stroke-miterlimit:10;}
</style>
<g class="st0">
	<path class="st1" d="M-4.2,1125c51,0,102,0,153,0c0,0,509.6,6.4,572-181c21.2-63.7-10.5-110.6,32-219c12.9-32.9,50.7-129.2,142-181
		c41.1-23.4,47.4-11.7,75-34c68-54.9,37.9-132.1,100-181c42.9-33.9,73-9.2,109-41c76-67,2.8-340.6-135.5-371.5
		c-92.9-20.7-199.5,69.6-233,98C764.9,53,769.8,64.8,726.8,96c-86.5,62.8-127,29.9-204,81c-60.1,39.9-117.3,114.2-137,196
		c-10.7,44.6-4,65-26,95c-41.4,56.4-127,74-127,74l0,0c-31.6,6.5-115.1,35.3-193,122c-19.2,21.4-201,223.9-124,378
		C-63.8,1083-30.7,1109-4.2,1125z"/>
</g>
<g>
	<path class="st1" d="M-28.5,1090c51,0,102,0,153,0c0,0,509.6,6.4,572-181c21.2-63.7-10.5-110.6,32-219
		c12.9-32.9,50.7-129.2,142-181c41.1-23.4,47.4-11.7,75-34c68-54.9,37.9-132.1,100-181c42.9-33.9,73-9.2,109-41
		c76-67,2.8-340.6-135.5-371.5c-92.9-20.7-199.5,69.6-233,98C740.6,18,745.5,29.8,702.5,61c-86.5,62.8-127,29.9-204,81
		c-60.1,39.9-117.3,114.2-137,196c-10.7,44.6-4,65-26,95c-41.4,56.4-127,74-127,74l0,0c-31.6,6.5-115.1,35.3-193,122
		c-19.2,21.4-201,223.9-124,378C-88,1048-55,1074-28.5,1090z"/>
</g>
<path class="st2" d="M298.5,1125"/>
</svg>
