<?xml version="1.0" encoding="utf-8"?>
<!-- Generator: Adobe Illustrator 24.0.2, SVG Export Plug-In . SVG Version: 6.00 Build 0)  -->
<svg version="1.1" id="Layer_1" xmlns="http://www.w3.org/2000/svg" xmlns:xlink="http://www.w3.org/1999/xlink" x="0px" y="0px"
	 viewBox="0 0 1125 1125" style="enable-background:new 0 0 1125 1125;" xml:space="preserve">
<style type="text/css">
	.st0{opacity:0.15;}
	.st1{fill:#CCFF33;}
	.st2{fill:#CCFF33;stroke:#000000;stroke-miterlimit:10;}
</style>
<g class="st0">
	<path class="st1" d="M1086.2,1125c-51,0-102,0-153,0c0,0-509.6,6.4-572-181c-21.2-63.7,10.5-110.6-32-219
		c-12.9-32.9-50.7-129.2-142-181c-41.1-23.4-47.4-11.7-75-34c-68-54.9-37.9-132.1-100-181c-42.9-33.9-73-9.2-109-41
		c-76-67-2.8-340.6,135.5-371.5c92.9-20.7,199.5,69.6,233,98C317.1,53,312.2,64.8,355.2,96c86.5,62.8,127,29.9,204,81
		c60.1,39.9,117.3,114.2,137,196c10.7,44.6,4,65,26,95c41.4,56.4,127,74,127,74l0,0c31.6,6.5,115.1,35.3,193,122
		c19.2,21.4,201,223.9,124,378C1145.7,1083,1112.6,1109,1086.2,1125z"/>
</g>
<g>
	<path class="st1" d="M1110.4,1090c-51,0-102,0-153,0c0,0-509.6,6.4-572-181c-21.2-63.7,10.5-110.6-32-219
		c-12.9-32.9-50.7-129.2-142-181c-41.1-23.4-47.4-11.7-75-34c-68-54.9-37.9-132.1-100-181c-42.9-33.9-73-9.2-109-41
		c-76-67-2.8-340.6,135.5-371.5c92.9-20.7,199.5,69.6,233,98C341.3,18,336.4,29.8,379.4,61c86.5,62.8,127,29.9,204,81
		c60.1,39.9,117.3,114.2,137,196c10.7,44.6,4,65,26,95c41.4,56.4,127,74,127,74l0,0c31.6,6.5,115.1,35.3,193,122
		c19.2,21.4,201,223.9,124,378C1169.9,1048,1136.9,1074,1110.4,1090z"/>
</g>
<path class="st2" d="M783.4,1125"/>
</svg>
